# xmcd
#
# Track frame offsets:
#	183
#	14195
#	24813
#	37855
#	49500
#	63248
#	80910
#	101438
#	115290
#	126198
#	139210
#	149820
#
# Disc length: 2193 seconds
#
# Revision: 1
# Processed by: cddbd v1.5.1PL0 Copyright (c) Steve Scherf et al.
# Submitted via: CDex 1.50Beta5
#
DISCID=a8088f0c
DTITLE=さまざまなアーティスト - Take Five
DYEAR=1900
DGENRE=Jazz
TTITLE0=Jo Stafford/Autumn Leaves
TTITLE1=Louis Armstrong/What A Wonderful World
TTITLE2=Patti Page/Days Of Wine And Roses
TTITLE3=Frank Sinatra/What Is This Thing Called Love
TTITLE4=Tony Benett/Once Upon A Time
TTITLE5=Helen Merryll/Falling In Love With Love
TTITLE6=Billie Holiday/But Beautiful
TTITLE7=Sarah Baughan/Ain't Mis Behavin'
TTITLE8=Carmen Macrae/Take Five
TTITLE9=Ella Fitzgerald/Misty
TTITLE10=Chet Baker/My Funny Valentine
TTITLE11=Mildred Bailey/Lover, Come Back To Me
EXTD=
EXTT0=
EXTT1=
EXTT2=
EXTT3=
EXTT4=
EXTT5=
EXTT6=
EXTT7=
EXTT8=
EXTT9=
EXTT10=
EXTT11=
PLAYORDER=
